<?xml version="1.0" standalone="no"?>
<!DOCTYPE svg PUBLIC "-//W3C//DTD SVG 20010904//EN"
 "http://www.w3.org/TR/2001/REC-SVG-20010904/DTD/svg10.dtd">
<svg version="1.0" xmlns="http://www.w3.org/2000/svg"
 width="512.000000pt" height="512.000000pt" viewBox="0 0 512.000000 512.000000"
 preserveAspectRatio="xMidYMid meet">
<metadata>
Created by potrace 1.14, written by Peter Selinger 2001-2017
</metadata>
<g transform="translate(0.000000,512.000000) scale(0.100000,-0.100000)"
fill="#000000" stroke="none">
<path d="M2235 5101 c-134 -33 -239 -92 -342 -192 -100 -96 -150 -184 -228
-394 -12 -33 -73 -190 -135 -350 -139 -360 -133 -339 -110 -368 16 -20 17 -29
8 -60 -7 -23 -15 -34 -24 -30 -27 10 -61 -25 -84 -87 -23 -61 -23 -63 -5 -96
24 -45 8 -86 -38 -100 -40 -11 -35 -1 -182 -384 -64 -168 -137 -355 -160 -416
-24 -61 -69 -175 -99 -255 -30 -79 -170 -443 -312 -809 -141 -366 -270 -701
-286 -745 -37 -98 -47 -247 -23 -330 101 -341 493 -487 784 -291 116 77 154
140 276 451 54 138 111 275 127 307 32 59 77 103 143 134 38 18 74 19 870 19
648 0 837 -3 860 -13 l30 -12 -2 -128 c-6 -423 191 -801 482 -925 53 -23 72
-26 160 -24 86 2 108 6 155 29 l55 27 55 -27 c50 -24 65 -27 165 -27 119 0
138 6 240 70 185 117 332 374 380 664 14 85 14 306 0 381 -30 165 -112 326
-209 410 -76 66 -138 90 -276 107 -30 3 -82 19 -115 35 -33 15 -77 31 -98 35
-35 5 -38 8 -32 32 3 14 17 49 31 78 28 60 30 102 9 147 -21 44 -51 60 -125
66 l-64 5 -17 45 c-10 25 -38 99 -64 165 -44 115 -80 208 -180 470 -25 66 -49
129 -55 140 -5 11 -46 117 -91 235 -45 118 -96 253 -114 300 -18 47 -63 164
-100 260 -37 96 -87 226 -111 288 -24 62 -44 115 -44 118 0 3 -7 20 -15 37
-14 31 -107 273 -166 432 -16 44 -33 89 -38 100 -64 143 -90 184 -170 268 -95
100 -216 169 -358 207 -90 24 -263 24 -358 1z m241 -1663 c6 -7 42 -92 79
-188 37 -96 107 -276 155 -400 48 -124 117 -304 154 -400 37 -96 71 -184 76
-195 13 -30 9 -51 -16 -82 l-22 -28 -474 -1 c-493 -1 -516 1 -532 41 -3 9 -6
27 -6 40 0 13 77 220 171 461 95 242 198 507 230 589 65 166 83 190 138 181
19 -3 40 -11 47 -18z"/>
</g>
</svg>
